<svg version="1.2" xmlns="http://www.w3.org/2000/svg" viewBox="0 0 110 135" width="110" height="135">
	<title>noun-cricket-6793257</title>
	<style>
		.s0 { fill: #ffffff } 
	</style>
	<g id="Layer 1">
		<path class="s0" d="m82 0c-0.3 0-0.7 0.1-1 0.4l-6.6 5.5-0.4 12.3 12.9-10.9c0.6-0.6 0.7-1.5 0.2-2.2l-3.9-4.6c-0.3-0.3-0.7-0.5-1.2-0.5zm-9.2 7.3l-2.5 2.2-0.5 12.2 2.6-2.2zm-4.2 3.6l-15.9 13.4-0.7 4.2-2.8 2.4c-1.7-1.2-3.9-1-5.5 0.2-1.6 1.3-2.1 3.5-1.3 5.4l0.6 1.3c-1.4-1.2-3.3-1.5-4.9-0.7-1.6 0.7-2.7 2.4-2.7 4.1v1l-4.8 4 2.8 3.3 2-1.8v16.6c0 0.8 0.4 1.7 1.1 2.3 0.6 0.5 1.5 0.8 2.4 0.7l18.6-2.2-5.2 17.6-10.6 22.6c-0.9 1.8-0.8 3.9 0.1 5.6l8.9 16.1c0.6 1.1 1.5 1.9 2.7 2.3 1.2 0.4 2.5 0.2 3.6-0.4 1-0.6 1.8-1.6 2.2-2.7 0.3-1.2 0.1-2.5-0.5-3.6l-5.9-10.7c-0.2-0.4-0.2-0.9 0-1.4l9.3-19.7c0.2-0.5 0.8-0.9 1.3-0.9 0.6 0 1.1 0.4 1.4 0.9l12.6 25.6 1.5 12.1c0.2 1.2 0.8 2.3 1.8 3 0.9 0.8 2.1 1.1 3.4 1 1.2-0.2 2.3-0.8 3-1.8 0.7-0.9 1.1-2.2 0.9-3.4l-2.9-22.4-9.6-20.2c-0.2-0.4-0.2-0.7-0.1-1.1l5.7-19.5c0.9-3.1-0.7-6.3-3.6-7.5l-19.5-8c-0.3-0.1-0.6-0.4-0.8-0.8l-5.9-13.9 3-2.6h4.3l9.6-8.2zm7.1 20c-5.4 0.2-9.6 4.5-9.5 9.9 0 5.4 4.3 9.7 9.7 9.7 5.4 0 9.8-4.3 9.8-9.7 0-2.7-1-5.2-2.9-7.1-1.9-1.8-4.5-2.8-7.1-2.8zm-58.1 5c-1.4 0-2.7 0.6-3.7 1.6-1 1-1.5 2.3-1.5 3.7 0.1 1.4 0.7 2.7 1.7 3.6 1 1 2.4 1.4 3.8 1.4-2.7-3-2.5-7.5 0.3-10.2q-0.3-0.1-0.6-0.1zm1 0.1c-1.4 1.3-2.3 3.1-2.3 5-0.1 1.9 0.6 3.7 2 5.1q0.8-0.1 1.5-0.5c-2-2.7-1.9-6.4 0.3-9q-0.7-0.4-1.5-0.6zm0 0.5c0.1 0 0.2 0.1 0.1 0.2q-0.2 0.4-0.5 0.7c0 0.1-0.1 0.1-0.2 0.1-0.1-0.1-0.1-0.2 0-0.3q0.2-0.3 0.5-0.7 0 0 0.1 0zm0.8 0c0.1 0 0.2 0.1 0.1 0.2q-0.2 0.4-0.5 0.7c-0.1 0.2-0.3 0-0.2-0.2q0.2-0.3 0.5-0.7 0 0 0.1 0zm0.9 0.2c-2.1 2.5-2.2 6.2-0.2 8.8 1.6-0.9 2.5-2.5 2.6-4.3 0-1.8-0.9-3.5-2.4-4.5zm-2.9 1.7c0.1 0 0.2 0.2 0.2 0.2q-0.2 0.4-0.3 0.9c-0.1 0.1-0.3 0.1-0.3-0.1q0.1-0.5 0.3-0.9 0 0 0.1-0.1zm0.8 0c0.1 0 0.2 0.2 0.2 0.2q-0.2 0.4-0.3 0.9c-0.1 0.1-0.3 0.1-0.3-0.1q0.1-0.5 0.3-0.9 0 0 0.1-0.1zm-0.4 2.1c0 0 0.1 0 0.1 0.1q0 0.4 0 0.9c0 0.1-0.1 0.1-0.2 0.1-0.1 0-0.1 0-0.1-0.1q0-0.5 0-0.9c0-0.1 0.1-0.2 0.2-0.1zm-0.9 0c0.1 0 0.2 0 0.2 0.1q0 0.4 0 0.9c0 0.1-0.3 0.2-0.3 0q0-0.5 0-0.9 0-0.1 0.1-0.1zm27.6 1.1l6.3 14.9h-6.3zm-27.5 0.9c0.1 0 0.2 0 0.2 0.1q0.1 0.4 0.2 0.8c0 0.2-0.2 0.2-0.3 0.1q-0.1-0.4-0.2-0.8 0-0.2 0.1-0.2zm0.8 0q0.2 0 0.2 0.1 0.1 0.4 0.2 0.8c0.1 0.2-0.2 0.3-0.3 0.1q-0.1-0.4-0.2-0.8c0-0.1 0-0.2 0.1-0.2zm0 2.1q0.1-0.1 0.1 0 0.2 0.4 0.5 0.7c0.1 0.2-0.2 0.3-0.3 0.2q-0.2-0.4-0.4-0.7c-0.1-0.1 0-0.2 0.1-0.2zm0.8 0q0.1-0.1 0.2 0 0.2 0.4 0.4 0.7c0.1 0.2-0.1 0.3-0.3 0.2q-0.2-0.4-0.4-0.7c-0.1-0.1 0-0.2 0.1-0.2zm-13.7 1.7c-2.5 2.7-4.1 6-4.8 9.6-1.6 21.2 7.4 41.8 24 55.1 0.9 0.6 2 1 3.1 1.1-17.9-12.9-27.8-34.1-26.2-56 0.7-3.4 2.2-6.6 4.6-9.2zm87.4 4.2c-0.4 0-0.6 0.3-0.7 0.6v3.8c0 0.3 0.3 0.6 0.7 0.6 0.4 0 0.7-0.3 0.7-0.6v-3.8q0-0.2-0.2-0.4-0.2-0.2-0.5-0.2zm11.6 0c-0.3 0-0.6 0.3-0.6 0.6v3.8c0 0.3 0.3 0.6 0.7 0.6 0.3 0 0.6-0.3 0.6-0.6v-3.8q0-0.2-0.2-0.4-0.2-0.2-0.5-0.2zm-13.3 0c-0.3 0-0.6 0.3-0.6 0.6v3.8c0.1 0.3 0.3 0.6 0.7 0.6 0.3 0 0.6-0.3 0.6-0.6v-3.8q0-0.2-0.2-0.4-0.2-0.2-0.5-0.2zm3.3 0c-0.4 0-0.6 0.3-0.6 0.6v3.8c0 0.3 0.3 0.6 0.6 0.6 0.4 0 0.7-0.3 0.7-0.6v-3.8q0-0.2-0.2-0.4-0.2-0.2-0.5-0.2zm6.7 0c-0.3 0-0.6 0.3-0.6 0.6v3.8c0 0.3 0.3 0.6 0.7 0.6 0.4 0 0.7-0.3 0.7-0.6v-3.8q-0.1-0.2-0.3-0.4-0.2-0.2-0.5-0.2zm1.7 0c-0.4 0-0.6 0.3-0.6 0.6v3.8c0 0.3 0.3 0.6 0.6 0.6 0.4 0 0.7-0.3 0.7-0.6v-3.8q0-0.2-0.2-0.4-0.2-0.2-0.5-0.2zm3.2 0c-0.3 0-0.6 0.3-0.6 0.6v3.8c0.1 0.3 0.3 0.6 0.7 0.6 0.3 0 0.6-0.3 0.6-0.6v-3.8q0-0.2-0.2-0.4-0.2-0.2-0.5-0.2zm-10 0c-0.3 0-0.6 0.3-0.6 0.6v3.8c0 0.3 0.3 0.6 0.7 0.6 0.3 0 0.6-0.3 0.6-0.6v-3.8q0-0.2-0.2-0.4-0.2-0.2-0.5-0.2zm-8.1 1.9c-0.3 0-0.6 0.3-0.6 0.6 0 0.3 0.3 0.6 0.6 0.6h2.3v-1.2zm9.2 0v1.2h3.2v-1.2zm10 0v1.2h2.3c0.3 0 0.6-0.3 0.6-0.6 0-0.3-0.3-0.6-0.6-0.6zm-18.4 1.3c-0.4 0-0.9 0.2-1.2 0.5-0.3 0.3-0.5 0.8-0.5 1.2v47.4c0 0.9 0.8 1.7 1.7 1.7 1 0 1.7-0.8 1.8-1.7v-47.4c0-0.9-0.8-1.7-1.8-1.7zm10.1 0h-0.1c-0.4 0-0.9 0.2-1.2 0.5-0.3 0.3-0.5 0.8-0.5 1.2v47.4c0 1 0.8 1.7 1.7 1.7 1 0 1.8-0.7 1.8-1.7v-47.4c0-0.9-0.8-1.7-1.7-1.7zm10 0c-0.5 0-1 0.2-1.3 0.5-0.3 0.3-0.5 0.8-0.5 1.2v47.4c0 0.9 0.8 1.7 1.7 1.7 1 0 1.8-0.8 1.8-1.7v-47.4c0-0.9-0.8-1.7-1.7-1.7z"/>
	</g>
</svg>